<svg width="26" height="26" viewBox="0 0 26 26" fill="none" xmlns="http://www.w3.org/2000/svg">
    <g clip-path="url(#clip0_1696_545989)">
        <path d="M2.00103 6.57649C1.98914 6.44774 2.10911 6.42654 2.17943 6.38465C2.47056 6.20884 2.7715 6.05061 3.06728 5.88204C3.40132 5.69175 3.7333 5.49835 4.06579 5.30548C4.13198 5.26721 4.19713 5.22636 4.27573 5.17931C4.63356 5.3908 4.99191 5.62349 5.36887 5.81947C5.736 6.01028 6.06539 6.27141 6.48527 6.44308C6.49044 6.32105 6.49665 6.2378 6.49665 6.15506C6.49768 5.47457 6.50079 4.79355 6.49458 4.11306C6.49303 3.96103 6.52612 3.86692 6.67401 3.78625C7.16835 3.51633 7.6508 3.22366 8.13894 2.94236C8.34474 2.82394 8.55313 2.7107 8.77393 2.58763C9.49476 3.00131 10.2187 3.41705 10.9768 3.85244C10.985 3.75058 10.9954 3.67922 10.9954 3.60837C10.9964 2.9103 10.9995 2.21274 10.9933 1.51466C10.9917 1.37091 11.0248 1.2768 11.1598 1.20544C11.4163 1.06996 11.6624 0.914832 11.9137 0.770046C12.3212 0.535803 12.7292 0.302593 13.1382 0.0709351C13.1894 0.0419779 13.2468 0.0233625 13.2985 0.000610352C13.9113 0.348615 14.5194 0.687828 15.1218 1.03687C15.794 1.42676 16.4579 1.83061 17.1307 2.21894C17.6105 2.49559 18.1013 2.7531 18.5832 3.02613C18.8578 3.18177 19.122 3.35552 19.394 3.51581C19.7844 3.7454 20.1769 3.96982 20.5694 4.19579C20.9468 4.41297 21.3259 4.62808 21.7028 4.84681C21.8507 4.93214 21.9924 5.0278 22.1408 5.1126C22.5338 5.33754 22.9299 5.5573 23.3224 5.78327C23.7143 6.00924 24.1037 6.23987 24.4931 6.46997C24.5132 6.48187 24.5256 6.50617 24.5417 6.52427C24.4269 6.58166 24.3079 6.63234 24.1973 6.69698C23.7324 6.96793 23.2712 7.24613 22.8053 7.51605C22.206 7.86302 21.6025 8.20327 21.0032 8.54972C20.3739 8.91324 19.7477 9.2809 19.1189 9.64545C18.7937 9.83419 18.4663 10.0198 18.1401 10.207C17.6659 10.4795 17.1917 10.752 16.718 11.0261C16.4145 11.2014 16.1115 11.3777 15.8095 11.5551C15.4998 11.7366 15.1921 11.9207 14.8818 12.1016C14.5716 12.2826 14.2618 12.4641 13.948 12.6379C13.7246 12.7615 13.494 12.8726 13.2664 12.9895C13.2277 12.9729 13.1863 12.9605 13.1496 12.9393C12.74 12.7041 12.3315 12.4672 11.922 12.2314C11.394 11.9274 10.8651 11.6238 10.3371 11.3198C9.83863 11.0323 9.34015 10.7448 8.84167 10.4568C8.23977 10.1088 7.63788 9.76024 7.03546 9.41275C6.52974 9.12111 6.02351 8.82947 5.51779 8.53835C5.01156 8.24722 4.50429 7.95765 3.99909 7.66498C3.41994 7.32938 2.84235 6.99017 2.26268 6.65509C2.18357 6.60907 2.10549 6.54185 2 6.57701L2.00103 6.57649ZM11.0781 1.33988C11.0626 1.39211 11.0497 1.4159 11.0497 1.43968C11.0481 2.20602 11.0491 2.97235 11.0471 3.73868C11.0471 3.83383 11.076 3.89122 11.1655 3.94293C11.6391 4.21493 12.1051 4.50036 12.5782 4.77339C13.207 5.13639 13.8404 5.49111 14.4708 5.85205C14.6264 5.94099 14.7753 6.0413 14.9305 6.13076C15.1968 6.28485 15.4662 6.43326 15.733 6.5858C15.9848 6.73007 16.2361 6.87589 16.4869 7.02223C16.8628 7.24148 17.2403 7.45917 17.6131 7.68411C17.7471 7.76529 17.8562 7.75598 17.9891 7.67377C18.3577 7.44573 18.7368 7.23372 19.1096 7.01292C19.3868 6.84848 19.6613 6.67991 19.9421 6.51082C19.9106 6.47101 19.8987 6.4436 19.878 6.43171C16.9528 4.73822 14.0266 3.04526 11.0781 1.33937V1.33988ZM6.56025 6.49169C6.82604 6.64475 7.09338 6.79626 7.35864 6.95087C7.74233 7.17477 8.12291 7.40436 8.50763 7.62619C9.06919 7.94989 9.63386 8.26739 10.1965 8.59006C10.6784 8.86619 11.1593 9.14438 11.6386 9.42465C12.118 9.70491 12.5968 9.98621 13.072 10.2732C13.2147 10.3596 13.3404 10.3601 13.4774 10.2675C13.6119 10.177 13.7504 10.0917 13.8911 10.0115C14.3058 9.77575 14.7236 9.54461 15.1383 9.3083C15.2448 9.24728 15.3436 9.17282 15.4781 9.08285C12.4887 7.35782 9.53354 5.65245 6.55973 3.93621V6.49117L6.56025 6.49169Z" fill="#FCFCFC"/>
        <path d="M13.267 12.9884C13.4945 12.8715 13.7252 12.7608 13.9485 12.6367C14.2624 12.463 14.5722 12.281 14.8824 12.1005C15.1927 11.92 15.5003 11.7354 15.8101 11.5539C16.1126 11.3766 16.4151 11.2002 16.7186 11.025C17.1923 10.7514 17.6664 10.4789 18.1406 10.2059C18.4669 10.0182 18.7942 9.83305 19.1195 9.64431C19.7478 9.27976 20.3745 8.91211 21.0038 8.54859C21.6036 8.20214 22.207 7.86241 22.8058 7.51492C23.2717 7.245 23.7325 6.9668 24.1979 6.69584C24.3085 6.63121 24.4275 6.58053 24.5422 6.52313C24.5422 7.32256 24.5402 8.1225 24.5453 8.92193C24.5464 9.0481 24.5092 9.11894 24.3938 9.1841C23.7092 9.56985 23.0308 9.96646 22.3508 10.36C22.3374 10.3677 22.3296 10.3858 22.3193 10.3993C22.1233 10.5053 21.9247 10.6066 21.7324 10.7183C21.148 11.0586 20.5679 11.406 19.982 11.7442C19.3444 12.1124 18.7012 12.4702 18.0625 12.8374C17.4167 13.2086 16.7739 13.5856 16.1307 13.961C15.9326 14.0763 15.7367 14.1942 15.5567 14.3007V16.8567C15.6622 16.7978 15.7506 16.7502 15.8375 16.7001C16.0966 16.5496 16.3546 16.397 16.6142 16.2476C16.9999 16.0258 17.3883 15.8076 17.774 15.5857C18.1748 15.3551 18.5734 15.1214 18.9742 14.8907C19.2638 14.7242 19.5559 14.5624 19.8444 14.3943C20.3103 14.1229 20.7731 13.8462 21.2401 13.5758C21.6326 13.3483 22.0292 13.1275 22.4227 12.9015C22.8307 12.6667 23.2371 12.4289 23.6446 12.1936C23.9042 12.0436 24.1658 11.8968 24.4238 11.7442C24.4533 11.7266 24.4652 11.6806 24.4854 11.6475C24.5914 11.6889 24.5407 11.7809 24.5412 11.8476C24.5459 12.4568 24.5438 13.0659 24.5438 13.6756C24.5438 13.8809 24.5438 14.0856 24.5438 14.2976C24.1508 14.5215 23.7656 14.7387 23.3819 14.96C23.0866 15.1302 22.7919 15.3024 22.5008 15.4797C22.4454 15.5133 22.4087 15.5769 22.3637 15.6271C22.2593 15.6012 22.1833 15.6633 22.1026 15.7109C21.8446 15.8629 21.5881 16.0175 21.329 16.1669C20.936 16.3934 20.5399 16.6147 20.1469 16.8417C19.7617 17.0641 19.3806 17.2937 18.9954 17.516C18.6101 17.7384 18.2213 17.955 17.835 18.1758C17.3893 18.4308 16.9446 18.6867 16.5004 18.9448C16.2341 19.0994 15.974 19.2648 15.703 19.4117C15.5784 19.4789 15.5422 19.5617 15.5433 19.6982C15.55 20.4128 15.5458 21.1274 15.5469 21.8426C15.5469 21.9005 15.5557 21.9589 15.5619 22.0375C15.6317 22.0075 15.6875 21.9894 15.7367 21.961C16.0242 21.795 16.3091 21.6243 16.5966 21.4589C17.1974 21.1129 17.8004 20.7711 18.4007 20.4242C19.0455 20.0519 19.6873 19.6744 20.3316 19.3021C20.7168 19.0792 21.1062 18.8636 21.4914 18.6407C21.995 18.3496 22.4961 18.0533 22.9998 17.7622C23.4739 17.4881 23.9502 17.2177 24.4243 16.9436C24.4512 16.9281 24.4662 16.8924 24.4869 16.866C24.5055 16.8997 24.5407 16.9333 24.5407 16.9669C24.5438 17.801 24.5433 18.635 24.5433 19.4841C24.4264 19.557 24.3137 19.632 24.1963 19.6997C23.8111 19.9216 23.4233 20.1392 23.0385 20.3616C22.6538 20.584 22.2712 20.8099 21.8875 21.0349C21.5116 21.2557 21.1377 21.479 20.7602 21.6967C20.4412 21.8803 20.117 22.0546 19.7979 22.2376C19.4344 22.446 19.075 22.6601 18.7125 22.8705C18.4462 23.0252 18.1779 23.1756 17.9121 23.3302C17.5646 23.5319 17.2197 23.7382 16.8712 23.9383C16.3975 24.2098 15.9202 24.4756 15.4466 24.7471C15.0686 24.9637 14.6937 25.1861 14.3172 25.4064C13.9775 25.6049 13.6388 25.8045 13.2975 25.9995C13.2815 26.0088 13.2437 25.9798 13.2158 25.9685C13.3187 25.9002 13.2701 25.7957 13.2701 25.7089C13.2727 21.5463 13.2722 17.3842 13.2722 13.2216C13.2722 13.144 13.268 13.0664 13.266 12.9894L13.267 12.9884Z" fill="#B8B8B8"/>
        <path d="M13.267 12.9884C13.269 13.0659 13.2732 13.1435 13.2732 13.2205C13.2732 17.3831 13.2737 21.5452 13.2711 25.7078C13.2711 25.7947 13.3192 25.8992 13.2168 25.9674C12.5332 25.5708 11.8517 25.1716 11.165 24.7812C11.0414 24.7109 11.0031 24.6256 11.0037 24.4906C11.0083 23.7837 11.0073 23.0774 11.0037 22.3705C11.0037 22.294 11.0559 22.1947 10.9473 22.1414C11.0719 22.0644 11.0486 21.9398 11.0486 21.8234C11.0486 19.4127 11.044 17.002 11.0564 14.5914C11.058 14.3328 10.9644 14.1953 10.7503 14.1017C10.7348 14.0949 10.7203 14.0846 10.7053 14.0758C10.3061 13.8452 9.90794 13.6125 9.50771 13.3839C9.27398 13.2505 9.03715 13.1233 8.77292 12.9775V13.2717C8.77292 14.1239 8.77292 14.9766 8.77292 15.8288C8.77343 18.3429 8.77447 20.857 8.77498 23.3711C8.4973 23.2191 8.21859 23.0701 7.94298 22.915C7.54016 22.688 7.1389 22.4579 6.73815 22.2268C6.67196 22.1885 6.61146 22.1404 6.54114 22.0918C6.54114 21.7728 6.54114 21.4547 6.54114 21.1372C6.54114 20.6558 6.54114 20.1739 6.54114 19.6925C6.54114 19.6232 6.55045 19.5482 6.44651 19.5467C6.58251 19.4748 6.54941 19.346 6.54941 19.2307C6.54993 16.7942 6.54993 14.3571 6.54993 11.9206V11.676C5.79239 11.2432 5.05449 10.8217 4.30316 10.3925C4.2592 10.498 4.27471 10.5927 4.27471 10.6842C4.27368 12.1739 4.27368 13.6637 4.2742 15.1529C4.2742 17.03 4.27575 18.907 4.27678 20.7841C4.00531 20.6393 3.7297 20.5012 3.46288 20.3482C3.0311 20.1005 2.60864 19.8362 2.17428 19.5937C2.03983 19.5187 1.98813 19.4334 2.00364 19.2881C2.01191 19.2116 2.00519 19.133 2.00519 19.0559C2.00519 14.9823 2.00519 10.9086 2.00519 6.83442C2.00519 6.74807 2.00312 6.66223 2.00209 6.57588C2.10757 6.54072 2.18514 6.60794 2.26477 6.65396C2.84443 6.98852 3.42203 7.32825 4.00117 7.66384C4.50637 7.95652 5.01364 8.24609 5.51988 8.53722C6.02611 8.82834 6.53183 9.11946 7.03755 9.41162C7.63996 9.75911 8.24134 10.1076 8.84376 10.4556C9.34224 10.7437 9.8402 11.0312 10.3392 11.3187C10.8671 11.6227 11.3961 11.9262 11.9241 12.2303C12.3331 12.4661 12.7421 12.7029 13.1517 12.9382C13.1879 12.9589 13.2292 12.9718 13.2685 12.9884H13.267Z" fill="#474747"/>
        <path d="M8.77453 23.3716C8.77401 20.8575 8.77298 18.3434 8.77246 15.8293C8.77246 14.9771 8.77246 14.1244 8.77246 13.2723V12.978C9.0367 13.1238 9.27352 13.2516 9.50725 13.3845C9.90748 13.613 10.3062 13.8452 10.7048 14.0763C10.7198 14.0851 10.7338 14.0955 10.7498 14.1022C10.9639 14.1958 11.0575 14.3328 11.0559 14.5919C11.0435 17.0026 11.0487 19.4133 11.0482 21.824C11.0482 21.9403 11.0715 22.0649 10.9468 22.142C10.4768 22.4171 10.0062 22.6916 9.53621 22.9667C9.34488 23.0784 9.15511 23.1927 8.96172 23.3013C8.90432 23.3334 8.83761 23.3489 8.77505 23.3721L8.77453 23.3716Z" fill="url(#paint0_linear_1696_545989)"/>
        <path d="M4.27572 20.7841C4.27469 18.907 4.27365 17.03 4.27314 15.1529C4.27314 13.6632 4.27314 12.1734 4.27365 10.6842C4.27365 10.5927 4.25814 10.498 4.30209 10.3925C5.05343 10.8217 5.79132 11.2432 6.54887 11.676V11.9206C6.54887 14.3571 6.54887 16.7942 6.54835 19.2307C6.54835 19.346 6.58093 19.4743 6.44545 19.5467C5.76857 19.9402 5.09169 20.3337 4.4143 20.7262C4.37138 20.751 4.32226 20.7649 4.27572 20.7841Z" fill="url(#paint1_linear_1696_545989)"/>
        <path d="M24.4853 11.648C24.4651 11.6811 24.4532 11.7272 24.4238 11.7447C24.1657 11.8973 23.9041 12.0441 23.6445 12.1941C23.237 12.4294 22.8306 12.6678 22.4226 12.902C22.0291 13.128 21.6325 13.3488 21.24 13.5763C20.7736 13.8467 20.3108 14.1234 19.8444 14.3948C19.5558 14.5629 19.2632 14.7248 18.9741 14.8913C18.5734 15.1219 18.1747 15.3556 17.7739 15.5862C17.3882 15.8081 17.0004 16.0268 16.6141 16.2481C16.3545 16.3976 16.0965 16.5501 15.8374 16.7006C15.7506 16.7507 15.6621 16.7983 15.5566 16.8572V14.3013C15.7366 14.1947 15.9326 14.0768 16.1306 13.9615C16.7744 13.5861 17.4166 13.2092 18.0625 12.8379C18.7006 12.4707 19.3438 12.1129 19.9819 11.7447C20.5678 11.4066 21.148 11.0591 21.7323 10.7188C21.9247 10.6071 22.1232 10.5058 22.3192 10.3998C22.5529 10.5373 22.7861 10.6764 23.0214 10.8114C23.509 11.0911 23.9977 11.3688 24.4858 11.6475L24.4853 11.648Z" fill="url(#paint2_linear_1696_545989)"/>
        <path d="M24.4879 16.866C24.4672 16.8924 24.4522 16.9281 24.4253 16.9436C23.9511 17.2177 23.4749 17.4881 23.0007 17.7622C22.4971 18.0533 21.996 18.3496 21.4923 18.6407C21.1071 18.8636 20.7177 19.0792 20.3325 19.3021C19.6882 19.6744 19.0465 20.0519 18.4017 20.4242C17.8013 20.7711 17.1984 21.1129 16.5975 21.4589C16.31 21.6243 16.0251 21.795 15.7376 21.961C15.688 21.9894 15.6326 22.0075 15.5628 22.0375C15.5566 21.9589 15.5478 21.9005 15.5478 21.8426C15.5468 21.1279 15.5509 20.4133 15.5442 19.6982C15.5432 19.5611 15.5794 19.4789 15.704 19.4117C15.9744 19.2654 16.2345 19.0994 16.5014 18.9448C16.9455 18.6872 17.3902 18.4313 17.836 18.1758C18.2222 17.955 18.6111 17.7384 18.9963 17.516C19.3816 17.2937 19.7627 17.0646 20.1479 16.8417C20.5409 16.6147 20.937 16.3934 21.33 16.1669C21.5896 16.0175 21.846 15.8629 22.1035 15.7109C22.1842 15.6633 22.2602 15.6012 22.3647 15.6271C22.8518 15.9099 23.3394 16.1928 23.826 16.4767C24.0473 16.6054 24.2676 16.7362 24.4884 16.866H24.4879Z" fill="url(#paint3_linear_1696_545989)"/>
        <path d="M11.0781 1.33978C14.0271 3.04568 16.9528 4.73812 19.878 6.43212C19.8987 6.44402 19.9101 6.47091 19.9422 6.51124C19.6614 6.68085 19.3868 6.84942 19.1096 7.01334C18.7363 7.23414 18.3578 7.44615 17.9891 7.67418C17.8562 7.7564 17.7471 7.76571 17.6132 7.68453C17.2404 7.45959 16.8634 7.24189 16.4869 7.02264C16.2362 6.87631 15.9848 6.73049 15.733 6.58622C15.4662 6.43368 15.1968 6.28475 14.9305 6.13118C14.7754 6.04172 14.6264 5.9414 14.4708 5.85246C13.8405 5.49205 13.207 5.13732 12.5782 4.7738C12.1051 4.50078 11.6392 4.21483 11.1655 3.94335C11.0761 3.89216 11.0471 3.83424 11.0471 3.7391C11.0492 2.97277 11.0487 2.20643 11.0497 1.4401C11.0497 1.41631 11.0626 1.39253 11.0781 1.3403V1.33978Z" fill="url(#paint4_linear_1696_545989)"/>
        <path d="M6.5603 6.49161V3.93665C9.53411 5.65288 12.4893 7.35826 15.4786 9.08328C15.3442 9.17326 15.2454 9.24772 15.1389 9.30873C14.7242 9.54505 14.3064 9.77619 13.8917 10.012C13.7505 10.0921 13.6124 10.1775 13.478 10.2679C13.341 10.3605 13.2153 10.36 13.0726 10.2736C12.5974 9.98613 12.1185 9.70535 11.6392 9.42508C11.1599 9.14482 10.6784 8.86714 10.197 8.59049C9.63494 8.26782 9.06976 7.95033 8.5082 7.62663C8.12348 7.40479 7.7429 7.1752 7.35921 6.9513C7.09394 6.79617 6.82661 6.64467 6.56082 6.49212L6.5603 6.49161Z" fill="url(#paint5_linear_1696_545989)"/>
    </g>
    <defs>
        <linearGradient id="paint0_linear_1696_545989" x1="8.50022" y1="20.0445" x2="11.028" y2="16.25" gradientUnits="userSpaceOnUse">
            <stop stop-color="#262626"/>
            <stop offset="1"/>
        </linearGradient>
        <linearGradient id="paint1_linear_1696_545989" x1="3.99908" y1="17.4572" x2="6.52714" y2="13.6659" gradientUnits="userSpaceOnUse">
            <stop stop-color="#262626"/>
            <stop offset="1"/>
        </linearGradient>
        <linearGradient id="paint2_linear_1696_545989" x1="20.0212" y1="10.3998" x2="20.0212" y2="16.8572" gradientUnits="userSpaceOnUse">
            <stop stop-color="#808080"/>
            <stop offset="0.626736" stop-color="#131313"/>
        </linearGradient>
        <linearGradient id="paint3_linear_1696_545989" x1="20.0163" y1="15.621" x2="20.0163" y2="22.0375" gradientUnits="userSpaceOnUse">
            <stop stop-color="#808080"/>
            <stop offset="0.626736" stop-color="#131313"/>
        </linearGradient>
        <linearGradient id="paint4_linear_1696_545989" x1="15.4946" y1="1.33978" x2="15.4946" y2="7.74085" gradientUnits="userSpaceOnUse">
            <stop stop-color="#BEBEBE"/>
            <stop offset="0.621527" stop-color="#3C3C3C"/>
        </linearGradient>
        <linearGradient id="paint5_linear_1696_545989" x1="11.0195" y1="3.93665" x2="11.0195" y2="10.3379" gradientUnits="userSpaceOnUse">
            <stop stop-color="#BEBEBE"/>
            <stop offset="0.621527" stop-color="#3C3C3C"/>
        </linearGradient>
        <clipPath id="clip0_1696_545989">
            <rect width="22.5531" height="26" fill="white" transform="translate(2)"/>
        </clipPath>
    </defs>
</svg>
