<svg width="16" height="16" viewBox="0 0 16 16" fill="none" xmlns="http://www.w3.org/2000/svg">
<g clip-path="url(#clip0_12_1079)">
<path d="M11.25 4.25V3.5C9.35033 2.86678 6 2.58921 6 0C6 2.58921 2.64967 2.86678 0.75 3.5V9.52717C0.75 11.2011 1.67915 12.7367 3.16197 13.5134L4.5 14.2143" stroke="#666666" stroke-width="1.5" stroke-linecap="square" stroke-linejoin="round"/>
<path d="M11.5 15.375C13.6401 15.375 15.375 13.6401 15.375 11.5C15.375 9.3599 13.6401 7.625 11.5 7.625C9.3599 7.625 7.625 9.3599 7.625 11.5C7.625 13.6401 9.3599 15.375 11.5 15.375Z" stroke="#666666" stroke-width="1.25" stroke-linecap="round" stroke-linejoin="round"/>
<path d="M8 11.5H15.25H8Z" fill="black"/>
<path d="M8 11.5H15.25" stroke="#666666" stroke-linejoin="bevel"/>
<path d="M10.75 15C10.0964 12.7124 10.0964 10.2876 10.75 8V15Z" fill="black"/>
<path d="M10.75 15C10.0964 12.7124 10.0964 10.2876 10.75 8" stroke="#666666" stroke-linejoin="bevel"/>
<path d="M12.25 15C12.9036 12.7124 12.9036 10.2876 12.25 8V15Z" fill="black"/>
<path d="M12.25 15C12.9036 12.7124 12.9036 10.2876 12.25 8" stroke="#666666" stroke-linejoin="bevel"/>
</g>
<defs>
<clipPath id="clip0_12_1079">
<rect width="16" height="16" fill="white"/>
</clipPath>
</defs>
</svg>
